<?xml version="1.0" encoding="iso-8859-1"?>
<!-- Generator: Adobe Illustrator 19.0.0, SVG Export Plug-In . SVG Version: 6.00 Build 0)  -->
<svg version="1.1" id="Capa_1" xmlns="http://www.w3.org/2000/svg" xmlns:xlink="http://www.w3.org/1999/xlink" x="0px" y="0px"
	 viewBox="0 0 512 512" style="enable-background:new 0 0 512 512;" xml:space="preserve">
<g>
	<g>
		<path d="M407,121H105C47.094,121,0,168.118,0,226c0,9.372,0,257.759,0,271c0,8.284,6.716,15,15,15c4.407,0,476.646,0,482,0
			c8.284,0,15-6.716,15-15c0-2.819,0-263.661,0-271.001C511.999,168.092,464.879,121,407,121z M30,226
			c0-24.484,11.796-46.262,30-59.959c0,10.136,0,225.008,0,236.104c-9.329-4.444-19.412-7.547-30-9.069
			C30,374.885,30,246.737,30,226z M30,482v-58.493c29.342,5.981,52.512,29.151,58.493,58.493H30z M422,423.596
			c-15.237,15.565-25.681,35.836-28.924,58.404H118.924c-3.242-22.568-13.687-42.838-28.924-58.404V332h91v15
			c0,41.355,33.645,75,75,75s75-33.645,75-75v-15h91V423.596z M256,362c8.284,0,15-6.716,15-15v-15h30v15c0,24.813-20.187,45-45,45
			s-45-20.187-45-45v-15h30v15C241,355.284,247.716,362,256,362z M422,302c-40.767,0-298.829,0-332,0v-30h332V302z M422,242H90
			v-89.491c4.848-0.988,9.864-1.509,15-1.509h302c5.136,0,10.152,0.521,15,1.509V242z M482,482h-58.493
			c5.981-29.342,29.151-52.512,58.493-58.493V482z M482,393.076c-10.588,1.521-20.671,4.625-30,9.069c0-11.782,0-225.523,0-236.104
			c18.204,13.697,30,35.475,30,59.959C482,246.74,482,374.9,482,393.076z"/>
	</g>
</g>
<g>
	<g>
		<path d="M256,0c-8.284,0-15,6.716-15,15v46c0,8.284,6.716,15,15,15s15-6.716,15-15V15C271,6.716,264.284,0,256,0z"/>
	</g>
</g>
<g>
	<g>
		<path d="M206.607,65.394l-30-30c-5.857-5.858-15.355-5.858-21.213,0c-5.858,5.858-5.858,15.355,0,21.213l30,30
			c5.857,5.858,15.355,5.858,21.213,0C212.465,80.749,212.465,71.252,206.607,65.394z"/>
	</g>
</g>
<g>
	<g>
		<path d="M356.606,35.394c-5.857-5.858-15.355-5.858-21.213,0l-30,30c-5.858,5.858-5.858,15.355,0,21.213
			c5.858,5.857,15.356,5.858,21.213,0l30-30C362.464,50.749,362.464,41.252,356.606,35.394z"/>
	</g>
</g>
<g>
</g>
<g>
</g>
<g>
</g>
<g>
</g>
<g>
</g>
<g>
</g>
<g>
</g>
<g>
</g>
<g>
</g>
<g>
</g>
<g>
</g>
<g>
</g>
<g>
</g>
<g>
</g>
<g>
</g>
</svg>
